# xmcd
#
# Track frame offsets:
#	182
#	13597
#	25610
#	38167
#	51200
#	63525
#	76895
#	91135
#	104825
#	118030
#	130550
#	144227
#
# Disc length: 2081 seconds
#
# Revision: 0
# Processed by: cddbd v1.5.2PL0 Copyright (c) Steve Scherf et al.
# Submitted via: EasyCDDAExtractor 15.3.0.1
#
DISCID=94081f0c
DTITLE=Martha Reeves and The Vandellas - I'm Ready for Love
DYEAR=1998
DGENRE=Soul
TTITLE0=Nowhere to Run
TTITLE1=Dancing in the Street
TTITLE2=(Love Is Like a) Heat Wave
TTITLE3=Jimmy Mack
TTITLE4=Wild One
TTITLE5=Honey Chile
TTITLE6=My Baby Loves Me
TTITLE7=Bless You
TTITLE8=I'm Ready for Love
TTITLE9=Motoring
TTITLE10=You've Been in Love Too Long
TTITLE11=Quicksand
EXTD=
EXTT0=
EXTT1=
EXTT2=
EXTT3=
EXTT4=
EXTT5=
EXTT6=
EXTT7=
EXTT8=
EXTT9=
EXTT10=
EXTT11=
PLAYORDER=
